<svg xmlns="http://www.w3.org/2000/svg" width="1600" height="900" viewBox="0 0 1600 900" preserveAspectRatio="xMidYMid slice">
  <defs>
    <linearGradient id="sky4" x1="0" y1="0" x2="0" y2="1">
      <stop offset="0%" stop-color="#0f172a"/>
      <stop offset="55%" stop-color="#334155"/>
      <stop offset="100%" stop-color="#fb923c"/>
    </linearGradient>
    <linearGradient id="water4" x1="0" x2="1">
      <stop offset="0%" stop-color="#38bdf8" stop-opacity="0.85"/>
      <stop offset="100%" stop-color="#0ea5e9" stop-opacity="0.7"/>
    </linearGradient>
  </defs>
  <rect width="100%" height="100%" fill="url(#sky4)"/>
  <circle cx="1280" cy="150" r="86" fill="#fde68a" opacity="0.9"/>
  <circle cx="1280" cy="150" r="132" fill="#fde68a" opacity="0.14"/>
  <g opacity="0.75">
    <circle cx="180" cy="110" r="2" fill="#fff"/>
    <circle cx="260" cy="70" r="1.6" fill="#fff"/>
    <circle cx="920" cy="90" r="2" fill="#fff"/>
    <circle cx="1140" cy="60" r="1.6" fill="#fff"/>
  </g>
  <path d="M0 560 C 220 500, 410 520, 620 585 C 830 650, 1040 640, 1600 560 L1600 900 L0 900 Z" fill="url(#water4)"/>
  <path d="M0 610 C 240 560, 470 580, 700 635 C 940 690, 1180 700, 1600 620" stroke="#e0f2fe" stroke-width="12" opacity="0.22" fill="none"/>
  <g transform="translate(80 260)">
    <path d="M0 360 L180 140 L340 360 Z" fill="#1e293b" opacity="0.65"/>
    <path d="M200 360 L380 100 L560 360 Z" fill="#0f172a" opacity="0.6"/>
    <path d="M420 360 L620 170 L820 360 Z" fill="#334155" opacity="0.55"/>
  </g>
  <g transform="translate(990 350)">
    <rect x="0" y="0" width="500" height="220" rx="28" fill="#ffffff" opacity="0.08"/>
    <text x="34" y="78" font-family="Inter, Arial, sans-serif" font-size="34" fill="#fff">City Lights</text>
    <text x="34" y="124" font-family="Inter, Arial, sans-serif" font-size="18" fill="#e2e8f0" opacity="0.85">Evening skyline and calm water</text>
  </g>
</svg>
