<svg xmlns="http://www.w3.org/2000/svg" width="1600" height="900" viewBox="0 0 1600 900" preserveAspectRatio="xMidYMid slice">
  <defs>
    <linearGradient id="sky6" x1="0" y1="0" x2="0" y2="1">
      <stop offset="0%" stop-color="#0b1020"/>
      <stop offset="50%" stop-color="#1d4ed8"/>
      <stop offset="100%" stop-color="#7dd3fc"/>
    </linearGradient>
    <linearGradient id="water6" x1="0" y1="0" x2="1" y2="1">
      <stop offset="0%" stop-color="#93c5fd" stop-opacity="0.82"/>
      <stop offset="100%" stop-color="#dbeafe" stop-opacity="0.68"/>
    </linearGradient>
  </defs>
  <rect width="100%" height="100%" fill="url(#sky6)"/>
  <circle cx="1260" cy="150" r="74" fill="#f8fafc" opacity="0.9"/>
  <circle cx="1260" cy="150" r="125" fill="#f8fafc" opacity="0.12"/>
  <path d="M0 550 C 260 470, 450 420, 700 500 C 940 576, 1130 620, 1600 540 L1600 900 L0 900 Z" fill="url(#water6)"/>
  <path d="M160 520 C 330 430, 520 405, 730 458 C 940 512, 1140 560, 1420 540" stroke="#e0f2fe" stroke-width="8" opacity="0.3" fill="none"/>
  <g transform="translate(120 220)">
    <path d="M0 370 L180 160 L360 370 Z" fill="#e2e8f0" opacity="0.5"/>
    <path d="M220 370 L430 120 L640 370 Z" fill="#f8fafc" opacity="0.38"/>
    <path d="M490 370 L700 200 L900 370 Z" fill="#cbd5e1" opacity="0.38"/>
    <rect x="960" y="120" width="350" height="240" rx="28" fill="#ffffff" opacity="0.08"/>
    <text x="998" y="190" font-family="Inter, Arial, sans-serif" font-size="34" fill="#f8fafc">Alpine Lake</text>
    <text x="998" y="234" font-family="Inter, Arial, sans-serif" font-size="18" fill="#e2e8f0" opacity="0.85">Fresh air, cool water, quiet peaks</text>
  </g>
</svg>
