<svg width="600" height="160" viewBox="0 0 600 160" xmlns="http://www.w3.org/2000/svg">
  <defs>
    <linearGradient id="goldGrad" x1="0%" y1="0%" x2="100%" y2="0%">
      <stop offset="0%" style="stop-color:#B8963E"/>
      <stop offset="50%" style="stop-color:#E8C97A"/>
      <stop offset="100%" style="stop-color:#B8963E"/>
    </linearGradient>
  </defs>

  <!-- Icon -->
  <rect x="10" y="20" width="100" height="100" rx="24" fill="#152E1F"/>
  <line x1="38" y1="108" x2="58" y2="42" stroke="url(#goldGrad)" stroke-width="2.5" stroke-linecap="round"/>
  <line x1="82" y1="108" x2="62" y2="42" stroke="url(#goldGrad)" stroke-width="2.5" stroke-linecap="round"/>
  <line x1="60" y1="104" x2="60" y2="52" stroke="#E8C97A" stroke-width="1.5" stroke-dasharray="6 5" stroke-linecap="round" opacity="0.6"/>
  <circle cx="60" cy="38" r="12" fill="url(#goldGrad)"/>
  <polygon points="60,58 53,44 67,44" fill="#E8C97A"/>
  <circle cx="60" cy="37" r="5" fill="#152E1F"/>
  <rect x="35" y="106" width="50" height="3" rx="1.5" fill="#E8C97A" opacity="0.4"/>

  <!-- Separator -->
  <line x1="128" y1="30" x2="128" y2="110" stroke="#B8963E" stroke-width="0.8" opacity="0.5"/>

  <!-- Brand name -->
  <text x="148" y="90" font-family="Georgia, 'Times New Roman', serif" font-size="52" font-weight="700" letter-spacing="1" fill="#152E1F">waynest</text>

  <!-- Gold underline -->
  <line x1="148" y1="102" x2="580" y2="102" stroke="url(#goldGrad)" stroke-width="1" opacity="0.6"/>

  <!-- Tagline -->
  <circle cx="148" cy="124" r="2.5" fill="#C8A96E"/>
  <text x="160" y="128" font-family="'Helvetica Neue', Arial, sans-serif" font-size="11" font-weight="400" letter-spacing="3.5" fill="#8A7A5A">AI TRIP PLANNER</text>
  <circle cx="318" cy="124" r="2.5" fill="#C8A96E"/>
  <text x="330" y="128" font-family="'Helvetica Neue', Arial, sans-serif" font-size="11" font-weight="400" letter-spacing="3.5" fill="#8A7A5A">SOCIAL PLATFORM</text>
</svg>
