<?xml version="1.0" encoding="utf-8" ?><svg xmlns="http://www.w3.org/2000/svg" xmlns:xlink="http://www.w3.org/1999/xlink" width="1024" height="1024" viewBox="0 0 1024 1024"><defs><linearGradient id="gradient_0" gradientUnits="userSpaceOnUse" x1="597.05072" y1="665.34491" x2="540.36011" y2="496.0932"><stop offset="0" stop-color="#00955C"/><stop offset="1" stop-color="#36BD88"/></linearGradient></defs><path fill="url(#gradient_0)" d="M527.714 361.139C532.179 367.26 540.293 379.559 544.747 384.708C546.287 379.295 548.012 373.897 549.518 368.51C567.311 403.455 586.471 437.632 601.52 473.865C603.194 477.896 604.921 481.907 606.596 485.938C609.835 482.128 613.497 477.247 616.559 473.24C617.553 472.166 619.308 469.788 620.284 468.551C619.555 470.479 618.996 471.812 620.179 473.686C621.581 473.551 623.002 472.042 624.169 471.049C627.887 471.344 635.91 467.419 640.209 466.081C654.079 461.766 667.074 456.286 681.537 454.076C682.686 453.9 685.903 446.702 688.721 445.522C687.905 447.759 686.884 449.72 685.872 451.853C677.235 470.052 666.647 487.003 656.063 504.118C626.794 552.409 594.309 598.675 558.829 642.605C549.284 654.186 539.476 665.549 529.414 676.685C524.292 682.306 515.94 690.699 511.441 696.38C499.749 683.503 488.206 670.491 476.813 657.347C447.644 622.903 420.369 586.897 395.11 549.491C387.089 538.238 378.951 525.165 371.711 513.394C379.405 501.084 377.63 507.526 390.081 499.439C393.916 492.27 392.991 481.458 405.549 490.129C404.531 485.73 401.618 472.941 402.496 468.934L403.733 469.28L406.168 472.596C407.251 475.055 411.814 479.877 413.841 482.875C415.045 479.237 417.865 473.648 419.468 469.841C424.119 458.791 429.48 448.051 434.552 437.203C440.16 424.978 445.902 412.814 451.778 400.715C461.264 380.891 462.824 375.611 480.792 362.21C490.083 372.796 498.954 384.623 508.743 394.607L517.762 379.014C520.992 373.251 524.693 366.953 527.714 361.139Z"/><defs><linearGradient id="gradient_1" gradientUnits="userSpaceOnUse" x1="484.47659" y1="528.40448" x2="473.37424" y2="363.9473"><stop offset="0" stop-color="#12A46B"/><stop offset="1" stop-color="#49C998"/></linearGradient></defs><path fill="url(#gradient_1)" d="M527.714 361.139C532.179 367.26 540.293 379.559 544.747 384.708C546.287 379.295 548.012 373.897 549.518 368.51C567.311 403.455 586.471 437.632 601.52 473.865C603.194 477.896 604.921 481.907 606.596 485.938C602.071 494.122 589.378 503.896 581.541 508.836C565.653 518.852 547.346 523.54 528.955 526.248C522.736 528.282 490.439 526.165 482.165 524.518C476.986 523.487 470.236 521.675 465.066 519.959C445.077 513.495 427.005 498.988 413.841 482.875C415.045 479.237 417.865 473.648 419.468 469.841C424.119 458.791 429.48 448.051 434.552 437.203C440.16 424.978 445.902 412.814 451.778 400.715C461.264 380.891 462.824 375.611 480.792 362.21C490.083 372.796 498.954 384.623 508.743 394.607L517.762 379.014C520.992 373.251 524.693 366.953 527.714 361.139Z"/><path fill="#047D4E" d="M527.714 361.139C532.179 367.26 540.293 379.559 544.747 384.708C546.287 379.295 548.012 373.897 549.518 368.51C567.311 403.455 586.471 437.632 601.52 473.865C603.194 477.896 604.921 481.907 606.596 485.938C602.071 494.122 589.378 503.896 581.541 508.836C565.653 518.852 547.346 523.54 528.955 526.248C529.203 524.627 535.974 511.008 537.132 508.423C552.724 473.627 549.928 439.688 529.53 407.515C524.426 399.465 521.551 388.027 517.762 379.014C520.992 373.251 524.693 366.953 527.714 361.139Z"/><path fill="#41BC83" d="M405.549 490.129C404.531 485.73 401.618 472.941 402.496 468.934L403.733 469.28L406.168 472.596C407.251 475.055 411.814 479.877 413.841 482.875C427.005 498.988 445.077 513.495 465.066 519.959C465.907 522.148 465.897 521.118 465.515 523.13C464.178 524.651 462.574 525.83 460.687 526.591C456.36 528.336 451.554 529.209 447.092 530.689C436.077 534.34 424.931 537.846 414.029 541.818C410.518 543.097 406.925 544.842 403.859 546.974C402.687 547.788 401.308 549.525 399.97 549.339C397.429 548.985 397.61 548.84 395.11 549.491C387.089 538.238 378.951 525.165 371.711 513.394C379.405 501.084 377.63 507.526 390.081 499.439C393.916 492.27 392.991 481.458 405.549 490.129Z"/><path fill="#0D9862" d="M526.356 727.162C536.647 700.119 562.819 669.466 589.255 657.41C624.849 641.295 666.48 652.353 682.967 689.408C699.31 726.14 684.986 769.237 647.428 785.361C622.903 795.89 594.117 793.272 568.509 788.601C561.326 786.9 553.501 785.197 546.424 783.269L546.142 783.708C541.113 791.716 536.372 803.448 531.508 812.003C513.302 844.03 488.122 874.678 450.7 883.616C427.363 889.228 402.749 885.221 382.396 872.498C360.681 858.922 345.542 836.462 339.891 811.598C334.796 788.924 338.872 765.156 351.229 745.475C363.561 725.966 386.289 712.249 408.52 707.565C448.966 699.044 488.911 715.131 526.356 727.162ZM580.295 743.326C593.786 748.088 615.489 747.868 628.811 742.038C640.844 736.772 649.537 723.007 642.946 710.053C640.156 704.511 635.227 700.346 629.296 698.521C608.085 692.212 584.722 717.324 574.841 732.942C573.312 735.358 571.35 738.079 570.551 740.827C573.817 741.755 576.952 742.707 580.295 743.326ZM453.679 832.318C476.823 818.361 493.212 792.059 505.71 768.682C485.289 763.737 449.81 751.36 430.293 752.23C421.125 753.038 413.126 754.625 405.102 759.329C378.561 774.888 377.728 809.818 401.198 828.608C410.705 836.258 422.882 839.779 435.004 838.381C441.663 837.639 447.814 835.518 453.679 832.318Z"/><path fill="#047D4E" d="M570.551 740.827C573.817 741.755 576.952 742.707 580.295 743.326C575.294 750.795 569.453 778.895 568.509 788.601C561.326 786.9 553.501 785.197 546.424 783.269C550.629 778.009 567.627 747.369 570.551 740.827Z"/><path fill="#EB5D2B" d="M609.939 326.741C599.895 315.017 593.46 303.215 589.159 288.213C581.878 261.877 585.443 233.721 599.06 210.031C612.21 186.824 633.923 169.688 659.551 162.29C686.421 154.707 715.206 158.149 739.531 171.854C763.073 185.264 780.323 207.478 787.486 233.608C794.682 259.759 791.174 287.699 777.734 311.258C762.831 337.22 743.543 348.57 717.118 359.21C716.157 370.121 714.217 380.924 711.323 391.489C700.157 388.824 677.841 380.488 666.97 376.096C668.231 371.253 669.144 366.326 669.704 361.353C643.336 354.976 628.284 346.599 609.939 326.741ZM685.102 338.305L686.169 337.909L685.334 336.754C683.064 334.953 678.413 333.847 675.564 333.133C660.507 329.359 645.372 324.37 636.428 310.663C640.669 312.617 645.401 316.346 649.455 318.935C658.093 324.449 670.794 330.619 681.217 330.491C682.943 330.26 683.941 330.232 685.547 329.506C687.003 327.389 686.71 325.065 686.936 322.224C685.836 310.379 686.181 298.281 684.783 286.145C688.856 284.31 691.307 283.077 695.152 280.828C693.755 290.416 692.932 307.384 692.301 317.424C692.159 319.284 692.028 322.883 691.457 324.499L691.753 325.907C692.566 325.406 692.563 325.314 693.256 324.632C693.322 321.785 693.369 320.376 692.98 317.488C694.658 316.018 703.508 314.933 706.848 313.812C713.695 311.538 720.032 307.947 725.502 303.242C737.732 292.596 743.05 278.89 744.113 263.011L751.574 261.048L761.403 258.557L763.363 258.189L765.015 257.967L765.31 257.219C764.373 257.065 717.455 263.82 712.294 264.449C714.985 259.867 716.928 256.002 719.267 251.258C729.45 252.952 739.867 254.833 750.163 255.62C754.384 255.943 757.215 255.111 760.517 252.552C759.31 249.28 758.662 243.421 757.418 239.776C755.198 233.268 752.14 227.369 749.646 220.963C755.803 229.576 760.677 241.591 761.777 252.121C763.299 251.828 764.441 251.228 765.887 250.622L766.175 249.851C761.786 228.26 756.832 221.168 743.566 204.219C745.314 201.14 746.373 198.993 747.832 195.76C745.962 197.813 744.355 199.339 743.057 201.797C742.86 205.167 731.57 224.52 729.029 227.971C722.505 236.833 710.85 267.166 703.422 272.633C689.945 282.554 664.332 293.222 650.067 303.742C656.484 304.206 666.02 313.685 673.768 314.875C687.019 316.91 683.876 314.677 685.767 325.796C672.609 322.548 654.547 318.51 646.357 305.906C642.441 307.912 637.343 311.176 633.478 313.474C636.087 308.868 639.045 305.297 641.596 300.779L641.095 300.382C630.855 292.144 627.199 274.693 625.856 262.272L633.864 263.379C635.456 279.891 637.56 281.521 644.38 296.388C646.313 295.368 664.778 262.51 667.981 257.433C674.872 246.506 672.898 245.856 685.262 239.078C704.912 228.307 724.35 215.786 742.174 202.228C739.496 201.376 735.749 198.121 733.294 196.423C710.201 180.449 681.064 177.985 655.427 189.478C636.456 197.883 621.706 213.624 614.55 233.1C607.418 252.481 608.201 273.89 616.73 292.698C628.098 317.452 654.651 338.063 682.559 338.142L685.102 338.305ZM691.517 266.813C694.535 265.485 696.816 264.329 698.144 261.069C699.054 258.879 699.009 256.408 698.021 254.252C696.054 249.934 692.572 248.617 688.183 248.082C676.868 253.409 678.847 266.95 691.517 266.813ZM738.006 302.632C736.439 301.939 735.866 301.478 734.22 301.88C732.658 302.996 732.484 303.593 731.568 305.253C733.241 305.893 733.403 305.923 735.071 306.21C737.032 305.143 736.671 304.919 738.006 302.632Z"/><path fill="#4DA5DE" d="M614.288 255.235C616.092 234.303 625.249 217.292 641.403 203.944C652.65 194.65 666.655 189.385 681.107 187.841C683.973 187.535 686.772 186.996 689.643 187.286C690.965 189.285 690.832 192.837 690.872 195.252C691.009 196.53 691.465 201.568 691.754 202.499C692.655 211.962 693.434 221.789 694.452 231.195C691.067 232.888 688.944 234.086 685.876 236.391C685.732 231.759 685.866 208.544 686.801 204.127L684.764 204.219C685.139 201.105 685.359 198.57 685.527 195.438L688.292 194.562L688.275 187.336L687.594 187.563C681.764 189.469 675.643 189.978 669.755 191.74C651.857 197.098 635.587 209.328 627.152 226.218C622.494 235.545 619.553 245.612 619.412 256.054C617.707 255.763 615.999 255.49 614.288 255.235Z"/><path fill="#FEFDFE" d="M685.527 195.438L688.292 194.562C688.063 196.308 687.49 203.223 686.801 204.127L684.764 204.219C685.139 201.105 685.359 198.57 685.527 195.438Z"/><path fill="#4DA5DE" d="M625.911 253.508C627.597 242.981 631.418 230.58 638.205 222.073C640.81 218.808 641.465 219.825 645.761 219.499C647.302 218.456 646.774 219.125 647.472 217.475C647.031 215.721 646.747 215.182 647.196 213.413C654.893 203.08 673.463 197.644 685.527 195.438C685.359 198.57 685.139 201.105 684.764 204.219C676.438 204.672 668.35 207.157 661.206 211.457C643.95 221.626 638.422 234.372 633.604 252.897L625.911 253.508Z"/><path fill="#4DA5DE" d="M663.26 251.203L667.854 250.899C665.566 255.467 662.979 259.7 660.369 264.083C649.294 262.988 638.306 261.973 627.375 259.833C623.112 258.983 620.434 258.796 616.056 258.498C630.925 254.564 647.903 252.955 663.26 251.203Z"/><path fill="#4DA5DE" d="M690.872 195.252L692.657 195.367C707.568 197.934 716.639 200.002 729.195 208.832L722.745 213.57L722.323 213.387C711.722 208.716 708.472 205.197 695.101 204.291C694.571 204.255 694.574 204.214 694.05 204.017L691.754 202.499C691.465 201.568 691.009 196.53 690.872 195.252Z"/><path fill="#FEFDFE" d="M690.872 195.252L692.657 195.367C693.047 197.516 693.987 202.057 694.05 204.017L691.754 202.499C691.465 201.568 691.009 196.53 690.872 195.252Z"/><path fill="#4DA5DE" d="M737.221 218.297C741.362 222.824 755.067 248.842 751.724 253.098L750.378 253.177L743.663 252.597C742.489 240.645 738.709 234.893 733.142 224.414C734.504 222.141 735.699 220.433 737.221 218.297Z"/><path fill="#4DA5DE" d="M614.599 259.547C615.2 259.617 618.792 259.835 618.814 260.582C619.003 266.963 619.754 272.544 621.067 278.793C623.318 289.503 629.608 297.679 635.339 306.659C635.76 307.319 634.959 308.6 634.655 309.344C623.926 305.382 612.351 270.506 614.599 259.547Z"/><path fill="#EB5D2B" d="M742.174 202.228L743.057 201.797C742.86 205.167 731.57 224.52 729.029 227.971C722.505 236.833 710.85 267.166 703.422 272.633C689.945 282.554 664.332 293.222 650.067 303.742L646.357 305.906C642.441 307.912 637.343 311.176 633.478 313.474C636.087 308.868 639.045 305.297 641.596 300.779L644.38 296.388C646.313 295.368 664.778 262.51 667.981 257.433C674.872 246.506 672.898 245.856 685.262 239.078C704.912 228.307 724.35 215.786 742.174 202.228ZM691.517 266.813C694.535 265.485 696.816 264.329 698.144 261.069C699.054 258.879 699.009 256.408 698.021 254.252C696.054 249.934 692.572 248.617 688.183 248.082C676.868 253.409 678.847 266.95 691.517 266.813Z"/><path fill="#D62927" d="M688.219 252.208C691.265 251.427 694.376 253.224 695.222 256.252C696.069 259.28 694.339 262.43 691.329 263.34C689.325 263.947 687.148 263.422 685.641 261.967C684.134 260.513 683.531 258.356 684.066 256.331C684.601 254.306 686.19 252.729 688.219 252.208Z"/><path fill="#4DA5DE" d="M765.887 250.622C766.158 252.141 766.497 253.217 766.351 254.715C765.678 255.825 765.436 255.965 765.31 257.219C764.373 257.065 717.455 263.82 712.294 264.449C714.985 259.867 716.928 256.002 719.267 251.258C729.45 252.952 739.867 254.833 750.163 255.62C754.384 255.943 757.215 255.111 760.517 252.552L761.777 252.121C763.299 251.828 764.441 251.228 765.887 250.622Z"/><path fill="#4DA5DE" d="M636.428 310.663C640.669 312.617 645.401 316.346 649.455 318.935C658.093 324.449 670.794 330.619 681.217 330.491C683.314 331.146 685.461 331.33 686.638 332.639C686.486 334.444 686.061 335.121 685.334 336.754C683.064 334.953 678.413 333.847 675.564 333.133C660.507 329.359 645.372 324.37 636.428 310.663Z"/><path fill="#FEFDFE" fill-opacity="0.047058824" d="M691.457 324.499C692.028 322.883 692.159 319.284 692.301 317.424L692.98 317.488C693.369 320.376 693.322 321.785 693.256 324.632C692.563 325.314 692.566 325.406 691.753 325.907L691.457 324.499Z"/><path fill="#FA9B36" d="M609.939 326.741C599.895 315.017 593.46 303.215 589.159 288.213C581.878 261.877 585.443 233.721 599.06 210.031C612.21 186.824 633.923 169.688 659.551 162.29C686.421 154.707 715.206 158.149 739.531 171.854C763.073 185.264 780.323 207.478 787.486 233.608C783.052 237.416 771.838 248.504 766.175 249.851C761.786 228.26 756.832 221.168 743.566 204.219C745.314 201.14 746.373 198.993 747.832 195.76C745.962 197.813 744.355 199.339 743.057 201.797L742.174 202.228C739.496 201.376 735.749 198.121 733.294 196.423C710.201 180.449 681.064 177.985 655.427 189.478C636.456 197.883 621.706 213.624 614.55 233.1C607.418 252.481 608.201 273.89 616.73 292.698C628.098 317.452 654.651 338.063 682.559 338.142C679.243 338.583 676.329 339.416 672.873 339.722C652.019 341.567 631.979 333.662 612.736 326.759C611.779 326.415 610.916 326.549 609.939 326.741Z"/><path fill="#6FC0EA" d="M765.31 257.219C765.436 255.965 765.678 255.825 766.351 254.715C772.23 294.833 738.187 334.634 699.019 338.499C694.95 338.9 688.975 339.721 685.102 338.305L686.169 337.909L685.334 336.754C686.061 335.121 686.486 334.444 686.638 332.639C685.461 331.33 683.314 331.146 681.217 330.491C682.943 330.26 683.941 330.232 685.547 329.506C687.003 327.389 686.71 325.065 686.936 322.224C685.836 310.379 686.181 298.281 684.783 286.145C688.856 284.31 691.307 283.077 695.152 280.828C693.755 290.416 692.932 307.384 692.301 317.424C692.159 319.284 692.028 322.883 691.457 324.499L691.753 325.907C692.566 325.406 692.563 325.314 693.256 324.632C693.322 321.785 693.369 320.376 692.98 317.488C694.658 316.018 703.508 314.933 706.848 313.812C713.695 311.538 720.032 307.947 725.502 303.242C737.732 292.596 743.05 278.89 744.113 263.011L751.574 261.048L761.403 258.557L763.363 258.189L765.015 257.967L765.31 257.219ZM738.006 302.632C736.439 301.939 735.866 301.478 734.22 301.88C732.658 302.996 732.484 303.593 731.568 305.253C733.241 305.893 733.403 305.923 735.071 306.21C737.032 305.143 736.671 304.919 738.006 302.632Z"/><path fill="#4DA5DE" d="M744.113 263.011L751.574 261.048C754.837 267.484 744.233 297.558 738.006 302.632C736.439 301.939 735.866 301.478 734.22 301.88C732.658 302.996 732.484 303.593 731.568 305.253C725.878 318.293 707.4 321.85 694.85 324.15C693.779 324.346 694.373 324.173 693.256 324.632C693.322 321.785 693.369 320.376 692.98 317.488C694.658 316.018 703.508 314.933 706.848 313.812C713.695 311.538 720.032 307.947 725.502 303.242C737.732 292.596 743.05 278.89 744.113 263.011Z"/><path fill="#4DA5DE" d="M684.783 286.145C688.856 284.31 691.307 283.077 695.152 280.828C693.755 290.416 692.932 307.384 692.301 317.424C692.159 319.284 692.028 322.883 691.457 324.499L691.753 325.907L692.557 326.355C692.638 328.547 692.006 330.792 691.317 332.886L691.463 334.035L690.917 334.918C691.201 336.125 691.128 336.49 691.11 337.745L690.55 338.279C686.347 335.566 688.7 331.053 688.256 326.859C688.11 325.477 687.415 323.544 686.936 322.224C685.836 310.379 686.181 298.281 684.783 286.145Z"/><path fill="#FEFDFE" d="M690.917 334.918C690.644 334.728 690.306 334.268 690.07 333.987C690.054 331.13 690.622 327.234 691.457 324.499L691.753 325.907L692.557 326.355C692.638 328.547 692.006 330.792 691.317 332.886L691.463 334.035L690.917 334.918Z"/><path fill="#4DA5DE" d="M763.363 258.189C762.617 261.067 762.378 263.753 762.003 266.86C759.581 286.913 750.556 305.616 734.719 318.44C734.009 319.015 734.032 318.859 733.133 318.815C733.653 317.635 740.043 312.071 742.023 309.989C753.795 297.607 762.147 275.686 761.403 258.557L763.363 258.189Z"/><path fill="#4DA5DE" d="M691.317 332.886C696.277 331.423 702.327 331.284 708.067 329.572C711.51 328.545 718.241 325.515 720.743 325.062L720.994 325.72C716.687 330.285 697.854 333.346 691.463 334.035L691.317 332.886Z"/><path fill="#047D4E" d="M669.704 361.353C687.269 364.425 700.047 363.585 717.118 359.21C716.157 370.121 714.217 380.924 711.323 391.489C700.157 388.824 677.841 380.488 666.97 376.096C668.231 371.253 669.144 366.326 669.704 361.353Z"/><path fill="#59CC9B" d="M371.711 513.394C362.371 499.578 352.496 481 344.535 466.321C335.593 449.833 325.451 429.705 319.039 412.115C303.471 369.491 302.354 322.929 315.862 279.608C331.271 228.765 367.62 187.534 414.191 162.644C451.18 142.906 493.264 134.784 534.941 139.342C551.601 141.319 564.664 144.679 580.548 149.502C595.325 155.063 603.225 159.407 616.938 165.592C598.921 178.314 590.845 185.412 578.49 204.1C571.121 200.674 555.407 195.152 547.633 193.531C504.894 184.55 461.332 190.627 424.396 214.765C389.823 237.112 365.736 272.469 357.595 312.822C355.198 324.797 354.187 337.008 354.581 349.214C355.484 370.844 364.101 406.965 376.019 424.736C376.781 425.848 377.589 426.928 378.441 427.974C382.891 420.321 387.493 412.521 394.718 407.258C398.243 410.881 401.717 414.67 405.628 417.85L411.526 411.439C414.268 408.492 416.999 405.77 419.858 402.934L431.971 411.929C424.608 427.533 411.631 456.413 406.168 472.596L403.733 469.28L402.496 468.934C401.618 472.941 404.531 485.73 405.549 490.129C392.991 481.458 393.916 492.27 390.081 499.439C377.63 507.526 379.405 501.084 371.711 513.394Z"/><path fill="#0D9862" d="M580.548 149.502C595.325 155.063 603.225 159.407 616.938 165.592C598.921 178.314 590.845 185.412 578.49 204.1C571.121 200.674 555.407 195.152 547.633 193.531C557.184 178.55 570.243 164.138 580.548 149.502Z"/><path fill="#0D9862" d="M411.526 411.439C414.268 408.492 416.999 405.77 419.858 402.934L431.971 411.929C424.608 427.533 411.631 456.413 406.168 472.596L403.733 469.28C400.225 463.792 397.167 457.855 394.075 452.11C407.482 438.445 414.936 431.693 411.526 411.439Z"/><defs><linearGradient id="gradient_2" gradientUnits="userSpaceOnUse" x1="417.87668" y1="590.19556" x2="203.10913" y2="476.53088"><stop offset="0" stop-color="#E95309"/><stop offset="1" stop-color="#FC9D41"/></linearGradient></defs><path fill="url(#gradient_2)" d="M292.393 275.986C288.054 292.075 286.708 306.443 284.991 322.667C284.948 330.255 284.827 338.083 285.129 345.648L283.631 348.487C248.434 397.946 235.311 473.648 245.817 532.759C259.135 607.697 296.448 664.848 357.382 709.26C346.23 715.62 337.233 725.158 330.627 736.111C265.063 688.408 219.907 620.317 207.283 539.669C204.394 521.019 203.09 502.158 203.384 483.288C203.409 480.554 203.44 473.149 203.941 470.851C203.942 470.355 203.951 469.859 203.966 469.363C204.329 460.139 205.859 450.213 207.291 441.097C216.554 382.11 248.119 316.82 292.393 275.986Z"/><path fill="#FA9B36" d="M292.393 275.986C288.054 292.075 286.708 306.443 284.991 322.667L284.069 322.875C284.144 322.275 283.563 326.765 283.848 325.723C281.589 333.988 274.325 343.646 270.453 350.695C268.366 356.851 267.815 361.349 264.755 367.23C262.388 371.78 257.353 374.867 255.704 378.215C250.231 389.327 245.184 399.466 238.729 410.085C232.205 420.818 226.585 433.26 221.745 444.801C220.215 448.741 217.49 452.824 215.938 456.826C214.489 460.359 214.149 465.459 212.355 469.121C211.648 468.132 211.601 467.839 211.154 466.691C207.051 467.84 208.439 475.334 205.783 478.126C205.124 478.819 205.219 481.83 205.177 482.948L204.788 483.085C204.745 478.315 204.548 475.584 203.941 470.851C203.942 470.355 203.951 469.859 203.966 469.363C204.329 460.139 205.859 450.213 207.291 441.097C216.554 382.11 248.119 316.82 292.393 275.986Z"/><path fill="#FA9B36" d="M283.631 348.487C282.997 346.727 281.911 346.77 282.179 344.483C283.653 344.303 283.515 344.626 285.129 345.648L283.631 348.487Z"/><path fill="#FA9B36" d="M284.095 334.125C284.469 335.329 284.502 338.884 283.995 340.151L283.625 337.774C282.224 336.481 282.553 337.234 282.321 335.585L282.063 336.243L281.563 335.511C283.58 334.996 282.807 335.513 284.095 334.125Z"/><defs><linearGradient id="gradient_3" gradientUnits="userSpaceOnUse" x1="636.38385" y1="644.88354" x2="857.1084" y2="415.22571"><stop offset="0" stop-color="#2E65B5"/><stop offset="1" stop-color="#54AAE2"/></linearGradient></defs><path fill="url(#gradient_3)" d="M782.824 342.791C785.394 344.22 792.539 360.447 794.123 363.882C814.355 408.726 823.715 457.714 821.442 506.859C817.95 574.239 791.731 638.447 747.062 689.012C736.311 701.185 725.33 710.955 713.314 721.834L712.673 721.862C712.276 720.671 713.802 715.244 713.967 713.283C715.002 700.905 710.619 688.724 705.994 677.586C736.747 646.66 759.383 608.615 771.888 566.832C792.188 499.621 785.045 427.106 752.02 365.149C765.425 359.114 772.54 352.71 782.824 342.791Z"/><path fill="#41BC83" d="M666.97 376.096C677.841 380.488 700.157 388.824 711.323 391.489C707.813 403.173 703.771 414.693 698.582 425.746C696.737 429.636 690.987 442.307 688.721 445.522C685.903 446.702 682.686 453.9 681.537 454.076C667.074 456.286 654.079 461.766 640.209 466.081C635.91 467.419 627.887 471.344 624.169 471.049C623.002 472.042 621.581 473.551 620.179 473.686C618.996 471.812 619.555 470.479 620.284 468.551C619.308 469.788 617.553 472.166 616.559 473.24C614.335 469.733 610.116 460.293 607.956 455.942C601.45 443.068 595.142 430.095 589.034 417.028C591.332 414.874 598.015 410.205 600.674 408.558L616.528 422.612C621.329 417.982 627.34 413.001 632.418 408.639C636.936 413.461 641.935 417.916 646.799 422.399C652.157 411.517 657.019 401.649 662.02 390.56C663.877 386.657 665.798 380.233 666.97 376.096Z"/><path fill="#047D4E" d="M589.034 417.028C591.332 414.874 598.015 410.205 600.674 408.558L616.528 422.612C621.329 417.982 627.34 413.001 632.418 408.639C636.936 413.461 641.935 417.916 646.799 422.399C641.567 432.727 635.948 442.854 629.956 452.76C628.284 455.548 621.115 466.157 620.284 468.551C619.308 469.788 617.553 472.166 616.559 473.24C614.335 469.733 610.116 460.293 607.956 455.942C601.45 443.068 595.142 430.095 589.034 417.028Z"/><path fill="#0D9862" d="M666.97 376.096C677.841 380.488 700.157 388.824 711.323 391.489C707.813 403.173 703.771 414.693 698.582 425.746C689.094 418.662 669.536 399.778 662.02 390.56C663.877 386.657 665.798 380.233 666.97 376.096Z"/><path fill="#59CC9B" d="M511.071 268.297C512.442 273.928 513.906 279.536 515.461 285.119C524.436 311.354 530.603 323.611 542.936 347.984C541.576 353.127 540.182 358.261 538.752 363.385C533.256 357.877 527.843 352.286 522.517 346.614C519.104 352.336 515.747 358.09 512.446 363.877L506.441 375.822C500.492 369.759 486.995 356.659 482.675 350.254C478.689 354.059 474.725 357.889 470.786 361.743C478.328 343.238 486.323 327.084 494.375 309.011C500.262 295.574 505.829 281.999 511.071 268.297Z"/><path fill="#41BC83" d="M515.461 285.119C524.436 311.354 530.603 323.611 542.936 347.984C541.576 353.127 540.182 358.261 538.752 363.385C533.256 357.877 527.843 352.286 522.517 346.614C519.104 352.336 515.747 358.09 512.446 363.877C502.709 343.311 503.009 304.576 515.461 285.119Z"/><path fill="#41BC83" d="M613.671 365.742C616.544 368.998 618.753 372.115 621.29 375.616C626.975 383.165 632.724 390.665 638.537 398.115C641.69 402.178 646.327 407.794 649.059 412.004C643.206 408.384 636.831 403.74 631.932 398.885C626.384 403.51 622.017 408.456 616.803 413.081C611.432 408.309 606.115 403.477 600.851 398.587C594.798 403.29 588.622 407.833 582.33 412.212C593.332 397.104 603.786 381.604 613.671 365.742Z"/><path fill="#59CC9B" d="M613.671 365.742C616.544 368.998 618.753 372.115 621.29 375.616C618.753 379.476 604.493 395.388 600.851 398.587C594.798 403.29 588.622 407.833 582.33 412.212C593.332 397.104 603.786 381.604 613.671 365.742Z"/><path fill="#41BC83" d="M414.988 345.455C415.541 350.127 416.203 353.155 417.272 357.77C420.501 371.476 430.6 393.692 438.077 406.213C430.848 402.332 426.272 399.839 419.584 394.933C416.056 398.133 412.391 401.374 408.996 404.699L405.308 407.821C402.563 404.704 400.178 401.95 397.633 398.676C395.32 400.369 393.603 402.241 391.587 404.269C392.981 401.12 394.433 397.375 395.615 394.136C401.484 378.054 409.909 361.738 414.988 345.455Z"/><path fill="#59CC9B" d="M414.988 345.455C415.541 350.127 416.203 353.155 417.272 357.77C410.26 367.687 405.42 392.663 408.996 404.699L405.308 407.821C402.563 404.704 400.178 401.95 397.633 398.676C395.32 400.369 393.603 402.241 391.587 404.269C392.981 401.12 394.433 397.375 395.615 394.136C401.484 378.054 409.909 361.738 414.988 345.455Z"/><path fill="#4DA5DE" d="M650.067 303.742C656.484 304.206 666.02 313.685 673.768 314.875C687.019 316.91 683.876 314.677 685.767 325.796C672.609 322.548 654.547 318.51 646.357 305.906L650.067 303.742Z"/><path fill="#4DA5DE" d="M625.856 262.272L633.864 263.379C635.456 279.891 637.56 281.521 644.38 296.388L641.596 300.779L641.095 300.382C630.855 292.144 627.199 274.693 625.856 262.272Z"/><path fill="#6FC0EA" d="M749.646 220.963C755.803 229.576 760.677 241.591 761.777 252.121L760.517 252.552C759.31 249.28 758.662 243.421 757.418 239.776C755.198 233.268 752.14 227.369 749.646 220.963Z"/></svg>